# xmcd CD database file
#
# Track frame offsets:
#	150
#	18357
#	44573
#	66800
#	87070
#	114934
#	145499
#	170314
#	188366
#	216358
#
# Disc length: 3139 seconds
#
# Revision: 0
# Processed by: cddbd v1.5PL3 Copyright (c) Steve Scherf et al.
# Submitted via: CDex 1.51
#
DISCID=820c410a
DTITLE=Humphrey Davis - A Little Jazz! A Little Blues! A Little Blues! A Little Jazz!
DYEAR=1900
DGENRE=Jazz
TTITLE0=Avalon
TTITLE1=Someday You'll Be Sorry
TTITLE2=Sara's Moon
TTITLE3=Smile
TTITLE4=Creeping
TTITLE5=Wonderful World
TTITLE6=Careless Love
TTITLE7=Country Girl
TTITLE8=Pork'N'Beans
TTITLE9=Far Away
EXTD=
EXTT0=
EXTT1=
EXTT2=
EXTT3=
EXTT4=
EXTT5=
EXTT6=
EXTT7=
EXTT8=
EXTT9=
PLAYORDER=
